<svg id="svg" version="1.1" xmlns="http://www.w3.org/2000/svg" xmlns:xlink="http://www.w3.org/1999/xlink" width="400" height="400" viewBox="0, 0, 400,400"><g id="svgg"><path id="path0" d="M124.245 80.642 C 116.709 82.003,110.538 87.186,105.759 96.170 C 103.880 99.702,103.895 100.361,105.829 99.343 C 109.451 97.436,114.078 95.141,116.015 94.291 C 127.602 89.206,141.358 90.369,150.454 97.203 C 153.231 99.290,153.361 99.250,153.063 96.398 C 151.934 85.597,138.246 78.113,124.245 80.642 M265.845 80.642 C 258.882 81.899,252.527 86.957,248.113 94.753 C 244.843 100.529,244.991 100.722,250.436 97.772 C 252.286 96.769,255.420 95.268,257.400 94.435 C 269.784 89.229,282.828 90.271,292.054 97.203 C 294.784 99.255,294.934 99.224,294.721 96.650 C 293.823 85.823,279.898 78.103,265.845 80.642 M123.000 117.198 C 88.562 123.353,75.632 175.354,101.864 202.200 C 127.857 228.801,167.678 208.632,169.486 167.949 C 170.833 137.668,147.991 112.731,123.000 117.198 M266.815 117.622 C 248.743 120.054,235.813 133.229,230.522 154.600 C 228.152 164.174,230.045 180.199,234.702 189.998 C 250.399 223.020,290.124 223.133,305.801 190.200 C 321.919 156.340,298.809 113.317,266.815 117.622 M136.600 123.264 C 163.102 131.041,172.272 169.428,153.922 195.777 C 153.769 195.997,153.518 196.051,153.365 195.898 C 153.211 195.745,153.262 195.390,153.478 195.110 C 157.336 190.091,157.869 174.928,154.483 166.501 C 153.639 164.403,153.620 164.404,152.074 166.557 C 145.917 175.131,132.283 173.395,128.370 163.539 C 126.545 158.943,127.964 152.671,131.538 149.533 C 133.299 147.986,132.805 147.612,129.000 147.612 C 109.162 147.611,95.228 170.387,102.418 191.064 C 104.229 196.271,104.237 196.359,102.716 194.400 C 93.826 182.950,91.337 162.483,97.005 147.426 C 104.053 128.701,120.638 118.580,136.600 123.264 M276.317 123.436 C 302.754 128.885,314.157 168.131,296.906 194.301 C 295.444 196.519,294.415 197.519,294.988 196.166 C 299.476 185.563,299.674 174.900,295.550 165.850 L 295.084 164.827 294.012 166.513 C 287.587 176.624,271.850 173.841,269.406 162.162 C 268.483 157.748,270.013 152.970,273.318 149.951 C 274.966 148.446,274.322 148.226,269.066 148.503 C 248.315 149.596,235.872 173.994,245.282 195.139 C 246.361 197.564,246.042 197.517,244.205 194.982 C 222.289 164.734,243.831 116.739,276.317 123.436 M397.133 234.013 C 396.703 234.264,326.467 234.366,199.188 234.301 L 1.910 234.200 2.175 236.783 C 2.320 238.203,2.588 239.553,2.770 239.783 C 2.952 240.012,3.231 241.280,3.389 242.600 C 3.548 243.920,3.817 245.180,3.988 245.400 C 4.159 245.620,4.429 246.700,4.587 247.800 C 4.745 248.900,5.022 249.980,5.202 250.200 C 5.382 250.420,5.741 251.770,6.000 253.200 C 6.259 254.630,6.614 255.980,6.790 256.200 C 6.966 256.420,7.236 257.365,7.390 258.300 C 7.544 259.235,7.823 260.000,8.011 260.000 C 8.198 260.000,8.472 260.810,8.621 261.800 C 8.769 262.790,9.050 263.600,9.245 263.600 C 9.440 263.600,9.600 263.859,9.600 264.175 C 9.600 264.991,11.671 271.359,12.014 271.600 C 12.171 271.710,12.426 272.385,12.582 273.100 C 12.737 273.815,13.029 274.400,13.232 274.400 C 13.434 274.400,13.600 274.666,13.600 274.992 C 13.600 275.671,15.658 280.898,16.044 281.200 C 16.184 281.310,16.426 281.985,16.582 282.700 C 16.737 283.415,17.015 284.000,17.200 284.000 C 17.385 284.000,17.655 284.540,17.800 285.200 C 17.945 285.860,18.229 286.400,18.432 286.400 C 18.634 286.400,18.800 286.622,18.800 286.894 C 18.800 287.451,20.844 291.689,21.264 292.004 C 21.414 292.116,21.660 292.701,21.812 293.304 C 21.963 293.907,22.214 294.400,22.369 294.400 C 22.524 294.400,22.898 295.030,23.200 295.800 C 23.502 296.570,23.876 297.200,24.031 297.200 C 24.186 297.200,24.432 297.672,24.576 298.248 C 24.721 298.825,25.056 299.539,25.320 299.834 C 26.530 301.189,26.785 301.600,27.035 302.598 C 27.182 303.185,27.550 303.759,27.851 303.875 C 28.153 303.991,28.400 304.309,28.400 304.582 C 28.400 304.854,28.760 305.493,29.200 306.000 C 29.640 306.507,30.000 307.165,30.000 307.461 C 30.000 307.758,30.158 308.000,30.351 308.000 C 30.545 308.000,30.927 308.540,31.200 309.200 C 31.473 309.860,31.855 310.400,32.049 310.400 C 32.242 310.400,32.400 310.676,32.400 311.013 C 32.400 311.349,32.670 311.729,33.000 311.855 C 33.330 311.982,33.600 312.323,33.600 312.614 C 33.600 312.905,33.825 313.381,34.100 313.671 C 34.375 313.962,35.140 315.010,35.800 316.000 C 37.342 318.313,37.652 318.716,38.500 319.517 C 38.885 319.880,39.204 320.363,39.209 320.589 C 39.214 320.815,39.799 321.658,40.509 322.462 C 41.219 323.266,42.250 324.511,42.800 325.230 C 43.350 325.948,44.239 326.997,44.776 327.562 C 45.313 328.126,46.126 329.131,46.583 329.794 C 47.418 331.005,48.613 332.313,53.800 337.695 L 56.600 340.600 200.200 340.600 C 327.247 340.600,343.886 340.531,344.543 340.000 C 345.753 339.024,347.306 337.421,348.800 335.607 C 349.570 334.672,350.920 333.143,351.800 332.209 C 353.765 330.125,356.485 326.904,356.928 326.137 C 357.109 325.825,357.789 324.991,358.440 324.285 C 359.090 323.578,359.865 322.730,360.161 322.400 C 360.457 322.070,360.818 321.412,360.965 320.937 C 361.111 320.462,361.494 319.973,361.815 319.850 C 362.137 319.726,362.400 319.449,362.400 319.233 C 362.400 319.018,362.811 318.397,363.314 317.855 C 363.817 317.313,364.492 316.358,364.814 315.734 C 365.136 315.110,365.604 314.420,365.853 314.200 C 366.102 313.980,366.958 312.810,367.757 311.600 C 368.555 310.390,369.476 309.048,369.804 308.619 C 370.132 308.189,370.400 307.604,370.400 307.319 C 370.400 307.033,370.541 306.800,370.714 306.800 C 370.887 306.800,371.562 305.811,372.214 304.601 C 372.866 303.392,373.521 302.402,373.668 302.401 C 373.816 302.401,374.052 301.875,374.193 301.233 C 374.334 300.592,374.708 299.967,375.024 299.846 C 375.341 299.724,375.600 299.349,375.600 299.013 C 375.600 298.676,375.752 298.400,375.937 298.400 C 376.122 298.400,376.483 297.701,376.739 296.847 C 376.994 295.994,377.473 295.072,377.802 294.798 C 378.131 294.525,378.400 294.054,378.400 293.751 C 378.400 293.448,378.566 293.200,378.768 293.200 C 378.971 293.200,379.255 292.660,379.400 292.000 C 379.545 291.340,379.800 290.800,379.968 290.800 C 380.135 290.800,380.510 290.080,380.800 289.200 C 381.090 288.320,381.479 287.600,381.664 287.600 C 381.849 287.600,382.006 287.375,382.014 287.100 C 382.021 286.825,382.375 285.880,382.800 285.000 C 383.225 284.120,383.579 283.175,383.586 282.900 C 383.594 282.625,383.735 282.399,383.900 282.398 C 384.065 282.398,384.740 280.958,385.400 279.200 C 386.060 277.442,386.735 276.002,386.900 276.002 C 387.065 276.001,387.206 275.685,387.214 275.300 C 387.221 274.915,387.575 273.880,388.000 273.000 C 388.425 272.120,388.779 271.096,388.786 270.724 C 388.794 270.352,388.968 269.944,389.173 269.817 C 389.378 269.690,389.767 268.599,390.036 267.393 C 390.306 266.187,390.668 265.200,390.839 265.200 C 391.011 265.200,391.272 264.390,391.421 263.400 C 391.569 262.410,391.835 261.600,392.010 261.600 C 392.186 261.600,392.456 260.835,392.610 259.900 C 392.764 258.965,393.042 258.011,393.228 257.780 C 393.414 257.548,393.795 256.153,394.074 254.680 C 394.354 253.206,394.701 252.000,394.845 252.000 C 394.990 252.000,395.232 251.010,395.383 249.800 C 395.534 248.590,395.807 247.600,395.990 247.600 C 396.172 247.600,396.449 246.475,396.605 245.100 C 396.761 243.725,397.029 242.420,397.199 242.200 C 397.369 241.980,397.709 240.286,397.954 238.436 C 398.628 233.351,398.593 233.161,397.133 234.013 M151.405 246.900 C 150.909 258.586,150.373 274.018,149.998 287.400 C 149.776 295.320,149.495 302.565,149.373 303.500 L 149.151 305.200 139.999 305.200 C 133.886 305.200,130.759 305.057,130.581 304.769 C 130.291 304.300,129.958 295.964,129.026 265.800 C 128.692 255.020,128.336 245.364,128.234 244.343 C 127.983 241.836,127.152 242.000,140.073 242.000 L 151.613 242.000 151.405 246.900 M101.400 251.953 C 118.727 257.633,120.512 279.194,104.100 284.576 C 101.430 285.451,101.461 285.727,104.300 286.321 C 123.658 290.373,122.735 316.484,103.000 323.079 L 99.800 324.148 79.900 324.301 L 60.000 324.453 60.000 287.599 L 60.000 250.745 79.300 250.890 C 98.146 251.032,98.666 251.057,101.400 251.953 M179.600 275.185 C 179.600 298.623,179.631 299.653,180.403 301.717 C 183.591 310.237,195.317 312.561,202.018 306.000 C 205.953 302.148,205.770 303.589,205.909 275.300 L 206.029 250.800 214.838 250.800 L 223.647 250.800 223.502 277.100 C 223.361 302.535,223.329 303.488,222.512 306.081 C 214.596 331.208,172.839 332.312,163.231 307.648 L 162.200 305.000 162.084 277.900 L 161.968 250.800 170.784 250.800 L 179.600 250.800 179.600 275.185 M275.132 251.909 C 294.468 258.614,298.152 284.807,281.224 295.223 L 279.218 296.458 280.557 298.929 C 287.856 312.399,293.600 323.127,293.818 323.700 C 294.068 324.355,293.466 324.400,284.530 324.400 L 274.974 324.400 272.087 318.900 C 264.864 305.136,263.463 302.492,262.546 300.900 L 261.566 299.200 257.183 299.200 L 252.800 299.200 252.800 311.800 L 252.800 324.400 244.000 324.400 L 235.200 324.400 235.200 287.575 L 235.200 250.750 253.900 250.891 C 271.925 251.026,272.691 251.063,275.132 251.909 M361.109 257.900 L 361.000 265.000 350.103 265.106 L 339.205 265.213 339.103 294.706 L 339.000 324.200 330.300 324.308 L 321.600 324.416 321.600 294.814 L 321.600 265.213 310.700 265.106 L 299.800 265.000 299.691 257.900 L 299.582 250.800 330.400 250.800 L 361.218 250.800 361.109 257.900 M78.000 272.799 L 78.000 280.867 84.700 280.730 C 94.499 280.529,97.000 278.917,97.000 272.800 C 97.000 266.722,94.412 265.080,84.500 264.869 L 78.000 264.731 78.000 272.799 M252.893 275.060 L 253.000 285.000 256.800 285.117 C 269.774 285.518,275.357 281.191,273.079 272.505 C 271.602 266.872,269.001 265.488,259.493 265.272 L 252.786 265.119 252.893 275.060 M78.000 301.247 L 78.000 310.095 85.700 309.932 C 96.707 309.699,99.577 307.995,99.593 301.680 C 99.611 294.847,95.595 292.400,84.358 292.400 L 78.000 292.400 78.000 301.247 M144.173 312.024 C 150.206 314.282,153.372 321.278,150.895 326.878 C 145.769 338.467,127.978 335.163,127.857 322.600 C 127.781 314.604,136.303 309.080,144.173 312.024 " stroke="none" fill="#050504" fill-rule="evenodd"></path><path id="path1" d="M108.800 39.365 C 95.284 44.224,64.727 67.683,57.953 78.400 C 56.158 81.239,56.313 83.661,58.417 85.662 C 61.435 88.533,63.580 87.645,71.005 80.446 C 79.192 72.510,81.023 70.848,85.966 66.870 C 90.927 62.876,98.750 57.474,104.600 54.003 C 106.580 52.828,109.278 51.131,110.595 50.233 C 120.835 43.250,119.555 35.498,108.800 39.365 M47.800 93.070 C 44.448 93.956,37.933 104.074,38.617 107.332 C 39.258 110.389,42.908 112.556,45.412 111.367 C 48.138 110.074,54.001 101.932,54.634 98.562 C 55.263 95.205,51.417 92.114,47.800 93.070 M121.600 123.181 C 96.046 130.147,85.441 167.400,101.753 192.899 C 103.396 195.468,104.226 196.218,103.549 194.523 C 102.011 190.672,101.518 189.040,100.991 186.048 C 97.467 166.056,110.845 147.600,128.860 147.600 C 132.818 147.600,133.357 147.954,131.784 149.519 C 126.490 154.785,126.186 162.161,131.040 167.561 C 136.949 174.132,147.807 173.189,152.458 165.700 C 153.706 163.691,153.974 164.020,155.636 169.600 C 157.673 176.442,157.449 184.482,155.020 191.673 C 153.488 196.211,153.825 196.117,156.729 191.200 C 175.491 159.433,152.429 114.777,121.600 123.181 M265.812 123.245 C 239.018 127.148,226.179 167.784,243.498 193.868 C 245.290 196.567,245.487 196.384,244.275 193.151 C 236.032 171.164,251.867 145.843,272.342 148.268 C 274.815 148.561,274.800 148.477,272.764 150.685 C 266.730 157.231,268.599 167.178,276.618 171.193 C 282.817 174.297,290.859 172.074,294.064 166.372 C 295.096 164.535,295.339 164.738,296.719 168.600 C 299.538 176.483,299.252 186.542,296.000 193.893 C 294.122 198.139,296.782 194.879,299.619 189.458 C 315.619 158.888,295.232 118.960,265.812 123.245 M128.405 243.700 C 128.416 247.238,129.413 276.969,130.249 298.700 L 130.484 304.800 139.782 304.800 L 149.080 304.800 149.339 300.500 C 149.482 298.135,149.877 287.650,150.217 277.200 C 150.557 266.750,150.963 254.630,151.118 250.266 C 151.273 245.902,151.325 242.257,151.233 242.166 C 151.142 242.075,145.967 242.000,139.733 242.000 L 128.400 242.000 128.405 243.700 M60.098 287.469 L 60.200 324.200 79.200 324.200 C 100.205 324.200,101.347 324.088,106.600 321.517 C 123.306 313.339,121.532 290.230,103.903 286.376 C 101.672 285.889,101.176 284.800,103.185 284.800 C 103.563 284.800,104.936 284.268,106.236 283.618 C 118.378 277.546,118.277 260.576,106.060 254.064 C 100.552 251.128,100.357 251.106,79.098 250.912 L 59.996 250.739 60.098 287.469 M162.000 276.525 C 162.000 307.288,162.186 308.546,167.721 315.254 C 179.040 328.971,207.554 328.436,218.213 314.306 C 223.196 307.701,223.200 307.673,223.200 276.901 L 223.200 250.800 214.612 250.800 L 206.023 250.800 205.912 275.509 L 205.800 300.218 204.486 302.886 C 199.625 312.759,184.336 312.055,180.210 301.769 C 179.460 299.897,179.414 298.590,179.288 275.300 L 179.155 250.800 170.578 250.800 L 162.000 250.800 162.000 276.525 M235.200 287.575 L 235.200 324.400 243.794 324.400 L 252.389 324.400 252.494 311.900 L 252.600 299.400 257.213 299.288 L 261.827 299.176 263.770 302.888 C 264.838 304.930,266.384 307.860,267.204 309.400 C 268.023 310.940,269.822 314.360,271.201 317.000 C 272.580 319.640,274.059 322.385,274.487 323.100 L 275.265 324.400 284.620 324.400 C 292.890 324.400,293.947 324.328,293.738 323.782 C 293.607 323.443,290.283 317.204,286.350 309.919 C 278.066 294.573,278.743 296.441,281.027 295.229 C 294.064 288.314,295.369 266.368,283.338 256.382 C 277.458 251.502,275.137 251.075,253.500 250.899 L 235.200 250.749 235.200 287.575 M299.691 257.900 L 299.800 265.000 310.697 265.106 L 321.595 265.213 321.697 294.706 L 321.800 324.200 330.297 324.308 L 338.795 324.416 338.897 294.908 L 339.000 265.400 350.000 265.200 L 361.000 265.000 361.109 257.900 L 361.218 250.800 330.400 250.800 L 299.582 250.800 299.691 257.900 M92.071 265.418 C 99.387 267.911,98.998 278.255,91.505 280.470 C 90.477 280.775,87.419 280.980,83.800 280.987 L 77.800 281.000 77.691 273.412 C 77.631 269.239,77.670 265.594,77.778 265.312 C 78.083 264.518,89.681 264.604,92.071 265.418 M265.598 265.427 C 271.529 266.776,274.368 271.085,273.433 277.321 C 272.563 283.124,268.073 285.364,257.800 285.122 L 252.600 285.000 252.487 275.800 C 252.337 263.595,251.752 264.800,257.829 264.800 C 260.941 264.800,263.887 265.038,265.598 265.427 M93.321 292.978 C 101.008 295.719,102.273 305.358,95.397 308.800 C 93.505 309.748,92.986 309.807,85.500 309.936 L 77.600 310.072 77.600 301.236 L 77.600 292.400 84.700 292.418 C 89.622 292.430,92.267 292.602,93.321 292.978 M135.800 311.902 C 133.167 312.789,129.174 316.687,128.483 319.046 C 124.425 332.890,144.056 340.114,150.606 327.188 C 154.959 318.597,145.357 308.683,135.800 311.902 " stroke="none" fill="#fbfbfb" fill-rule="evenodd"></path><path id="path2" d="M179.400 0.472 C 176.540 0.666,173.840 0.985,173.400 1.180 C 172.960 1.374,170.395 1.755,167.700 2.027 C 165.005 2.298,162.800 2.650,162.800 2.808 C 162.800 2.967,161.540 3.221,160.000 3.373 C 158.460 3.524,157.200 3.793,157.200 3.969 C 157.200 4.146,156.177 4.410,154.926 4.557 C 153.676 4.704,152.461 4.970,152.226 5.148 C 151.992 5.327,150.450 5.702,148.800 5.983 C 147.150 6.263,145.620 6.632,145.400 6.801 C 145.180 6.971,144.235 7.236,143.300 7.390 C 142.365 7.544,141.600 7.811,141.600 7.984 C 141.600 8.157,140.844 8.419,139.920 8.566 C 138.996 8.714,138.051 8.984,137.820 9.165 C 137.589 9.347,136.455 9.717,135.300 9.988 C 134.145 10.258,133.200 10.621,133.200 10.794 C 133.200 10.968,132.390 11.231,131.400 11.379 C 130.410 11.528,129.600 11.798,129.600 11.980 C 129.600 12.162,128.970 12.429,128.200 12.574 C 127.430 12.718,126.800 13.008,126.800 13.218 C 126.800 13.428,126.534 13.600,126.208 13.600 C 125.529 13.600,120.302 15.658,120.000 16.044 C 119.890 16.184,119.215 16.426,118.500 16.582 C 117.785 16.737,117.200 17.029,117.200 17.232 C 117.200 17.434,116.975 17.606,116.700 17.613 C 116.425 17.619,115.300 18.068,114.200 18.609 C 113.100 19.150,111.975 19.594,111.700 19.596 C 111.425 19.598,111.196 19.735,111.192 19.900 C 111.187 20.065,110.201 20.650,109.000 21.200 C 107.799 21.750,106.813 22.315,106.808 22.457 C 106.804 22.598,106.305 22.837,105.700 22.989 C 105.095 23.141,103.586 23.880,102.348 24.632 C 101.109 25.385,99.894 26.000,99.648 26.000 C 99.401 26.000,99.200 26.146,99.200 26.325 C 99.200 26.504,98.570 26.898,97.800 27.200 C 97.030 27.502,96.400 27.896,96.400 28.075 C 96.400 28.254,96.139 28.400,95.820 28.400 C 95.501 28.400,95.096 28.629,94.920 28.908 C 94.744 29.188,94.150 29.640,93.600 29.913 C 93.050 30.185,92.060 30.765,91.400 31.200 C 90.740 31.635,89.795 32.202,89.300 32.460 C 88.805 32.718,88.400 33.080,88.400 33.264 C 88.400 33.449,88.139 33.600,87.820 33.600 C 87.501 33.600,87.096 33.829,86.920 34.108 C 86.744 34.388,86.105 34.834,85.500 35.100 C 84.895 35.365,84.400 35.767,84.400 35.991 C 84.400 36.216,84.124 36.400,83.787 36.400 C 83.451 36.400,83.071 36.670,82.945 37.000 C 82.818 37.330,82.492 37.600,82.219 37.600 C 81.947 37.600,81.398 37.960,81.000 38.400 C 80.602 38.840,80.094 39.200,79.872 39.200 C 79.649 39.200,79.182 39.468,78.834 39.796 C 76.392 42.094,75.025 43.200,74.625 43.200 C 74.371 43.200,73.721 43.732,73.181 44.383 C 72.642 45.034,71.984 45.574,71.720 45.583 C 71.456 45.592,71.096 45.832,70.920 46.115 C 70.744 46.398,69.623 47.433,68.429 48.415 C 67.235 49.397,65.142 51.280,63.777 52.600 C 62.412 53.920,60.149 56.105,58.748 57.456 C 55.980 60.125,50.065 66.439,47.933 69.000 C 47.201 69.880,46.376 70.744,46.101 70.920 C 45.825 71.096,45.592 71.456,45.583 71.720 C 45.574 71.984,45.034 72.642,44.383 73.181 C 43.732 73.721,43.200 74.371,43.200 74.625 C 43.200 75.025,42.094 76.392,39.796 78.834 C 39.468 79.182,39.200 79.649,39.200 79.872 C 39.200 80.094,38.840 80.602,38.400 81.000 C 37.960 81.398,37.600 81.865,37.600 82.037 C 37.600 82.210,37.060 82.942,36.400 83.664 C 35.740 84.387,35.200 85.210,35.200 85.493 C 35.200 85.776,34.840 86.316,34.400 86.693 C 33.960 87.070,33.600 87.608,33.600 87.889 C 33.600 88.170,33.449 88.400,33.264 88.400 C 33.080 88.400,32.718 88.805,32.460 89.300 C 32.202 89.795,31.635 90.740,31.200 91.400 C 30.765 92.060,30.185 93.050,29.913 93.600 C 29.640 94.150,29.188 94.744,28.908 94.920 C 28.629 95.096,28.400 95.501,28.400 95.820 C 28.400 96.139,28.254 96.400,28.075 96.400 C 27.896 96.400,27.502 97.030,27.200 97.800 C 26.898 98.570,26.519 99.200,26.357 99.200 C 26.196 99.200,25.945 99.740,25.800 100.400 C 25.655 101.060,25.400 101.600,25.234 101.600 C 24.870 101.600,22.800 105.603,22.800 106.306 C 22.800 106.578,22.665 106.804,22.500 106.808 C 22.335 106.813,21.750 107.799,21.200 109.000 C 20.650 110.201,20.065 111.187,19.900 111.192 C 19.735 111.196,19.598 111.425,19.596 111.700 C 19.594 111.975,19.150 113.100,18.609 114.200 C 18.068 115.300,17.619 116.425,17.613 116.700 C 17.606 116.975,17.428 117.200,17.218 117.200 C 17.008 117.200,16.718 117.830,16.574 118.600 C 16.429 119.370,16.151 120.000,15.955 120.000 C 15.760 120.000,15.600 120.190,15.600 120.422 C 15.600 120.654,15.235 121.644,14.790 122.622 C 14.344 123.600,13.872 124.940,13.740 125.600 C 13.608 126.260,13.351 126.800,13.168 126.800 C 12.986 126.800,12.718 127.430,12.574 128.200 C 12.429 128.970,12.167 129.600,11.991 129.600 C 11.814 129.600,11.549 130.319,11.400 131.198 C 11.252 132.077,10.984 132.886,10.805 132.997 C 10.627 133.107,10.259 134.143,9.988 135.299 C 9.717 136.454,9.347 137.589,9.165 137.820 C 8.984 138.051,8.714 138.996,8.566 139.920 C 8.419 140.844,8.152 141.600,7.973 141.600 C 7.795 141.600,7.527 142.412,7.378 143.405 C 7.229 144.398,6.970 145.295,6.802 145.398 C 6.635 145.502,6.263 147.030,5.977 148.794 C 5.690 150.557,5.323 152.000,5.160 152.000 C 4.997 152.000,4.738 153.170,4.585 154.600 C 4.432 156.030,4.162 157.200,3.985 157.200 C 3.808 157.200,3.535 158.415,3.379 159.900 C 3.222 161.385,2.955 162.690,2.786 162.800 C 2.617 162.910,2.265 165.160,2.004 167.800 C 1.743 170.440,1.377 172.960,1.189 173.400 C -0.364 177.042,-0.356 223.054,1.198 226.600 C 1.391 227.040,1.670 228.840,1.817 230.600 C 1.964 232.360,2.291 233.932,2.542 234.094 C 3.267 234.559,396.322 234.470,397.192 234.004 C 397.773 233.693,397.987 232.944,398.191 230.504 C 398.334 228.797,398.609 227.040,398.802 226.600 C 400.355 223.057,400.365 177.060,398.813 173.400 C 398.627 172.960,398.280 170.658,398.043 168.285 C 397.806 165.912,397.452 163.662,397.255 163.285 C 397.059 162.908,396.772 161.385,396.618 159.900 C 396.463 158.415,396.192 157.200,396.015 157.200 C 395.838 157.200,395.568 156.030,395.415 154.600 C 395.262 153.170,395.003 152.000,394.840 152.000 C 394.677 152.000,394.310 150.557,394.023 148.794 C 393.737 147.030,393.345 145.489,393.151 145.370 C 392.958 145.251,392.799 144.758,392.798 144.276 C 392.796 143.794,392.552 142.933,392.254 142.363 C 391.956 141.792,391.581 140.622,391.421 139.763 C 391.260 138.903,390.988 138.020,390.817 137.800 C 390.645 137.580,390.283 136.454,390.012 135.299 C 389.741 134.143,389.373 133.107,389.195 132.997 C 389.016 132.886,388.748 132.077,388.600 131.198 C 388.451 130.319,388.186 129.600,388.009 129.600 C 387.833 129.600,387.571 128.970,387.426 128.200 C 387.282 127.430,387.014 126.800,386.832 126.800 C 386.649 126.800,386.392 126.260,386.260 125.600 C 386.128 124.940,385.656 123.600,385.210 122.622 C 384.765 121.644,384.400 120.654,384.400 120.422 C 384.400 120.190,384.240 120.000,384.045 120.000 C 383.849 120.000,383.571 119.370,383.426 118.600 C 383.282 117.830,382.992 117.200,382.782 117.200 C 382.572 117.200,382.394 116.975,382.387 116.700 C 382.381 116.425,381.932 115.300,381.391 114.200 C 380.850 113.100,380.406 111.975,380.404 111.700 C 380.402 111.425,380.265 111.196,380.100 111.192 C 379.935 111.187,379.350 110.201,378.800 109.000 C 378.250 107.799,377.685 106.813,377.543 106.808 C 377.402 106.804,377.163 106.305,377.011 105.700 C 376.859 105.095,376.120 103.586,375.368 102.348 C 374.615 101.109,374.000 99.894,374.000 99.648 C 374.000 99.401,373.854 99.200,373.675 99.200 C 373.496 99.200,373.102 98.570,372.800 97.800 C 372.498 97.030,372.104 96.400,371.925 96.400 C 371.746 96.400,371.600 96.139,371.600 95.820 C 371.600 95.501,371.371 95.096,371.092 94.920 C 370.812 94.744,370.360 94.150,370.087 93.600 C 369.815 93.050,369.235 92.060,368.800 91.400 C 368.365 90.740,367.798 89.795,367.540 89.300 C 367.282 88.805,366.920 88.400,366.736 88.400 C 366.551 88.400,366.400 88.139,366.400 87.820 C 366.400 87.501,366.171 87.096,365.892 86.920 C 365.612 86.744,365.166 86.105,364.900 85.500 C 364.635 84.895,364.233 84.400,364.009 84.400 C 363.784 84.400,363.600 84.124,363.600 83.787 C 363.600 83.451,363.330 83.071,363.000 82.945 C 362.670 82.818,362.400 82.492,362.400 82.219 C 362.400 81.947,362.040 81.398,361.600 81.000 C 361.160 80.602,360.800 80.094,360.800 79.872 C 360.800 79.649,360.532 79.182,360.204 78.834 C 357.906 76.392,356.800 75.025,356.800 74.625 C 356.800 74.371,356.268 73.721,355.617 73.181 C 354.966 72.642,354.426 71.984,354.417 71.720 C 354.408 71.456,354.175 71.096,353.899 70.920 C 353.624 70.744,352.799 69.880,352.067 69.000 C 349.935 66.439,344.020 60.125,341.252 57.456 C 339.851 56.105,337.588 53.920,336.223 52.600 C 334.858 51.280,332.765 49.397,331.571 48.415 C 330.377 47.433,329.256 46.398,329.080 46.115 C 328.904 45.832,328.595 45.600,328.393 45.600 C 328.192 45.600,327.397 44.970,326.627 44.200 C 325.857 43.430,325.047 42.800,324.827 42.800 C 324.476 42.800,323.880 42.310,321.166 39.789 C 320.818 39.465,320.317 39.200,320.054 39.200 C 319.790 39.200,319.474 38.937,319.350 38.615 C 319.227 38.294,318.779 37.920,318.356 37.786 C 317.932 37.651,317.004 37.008,316.293 36.356 C 315.582 35.704,314.608 35.071,314.129 34.949 C 313.650 34.827,313.161 34.474,313.041 34.164 C 312.922 33.854,312.627 33.600,312.384 33.600 C 312.141 33.600,311.708 33.375,311.420 33.100 C 310.513 32.231,308.754 31.118,306.400 29.924 C 305.850 29.645,305.256 29.188,305.080 28.908 C 304.904 28.629,304.499 28.400,304.180 28.400 C 303.861 28.400,303.600 28.254,303.600 28.075 C 303.600 27.896,302.970 27.502,302.200 27.200 C 301.430 26.898,300.800 26.519,300.800 26.357 C 300.800 26.196,300.260 25.945,299.600 25.800 C 298.940 25.655,298.400 25.400,298.400 25.234 C 298.400 24.870,294.397 22.800,293.694 22.800 C 293.422 22.800,293.200 22.620,293.200 22.400 C 293.200 22.180,292.952 22.000,292.649 22.000 C 292.346 22.000,291.883 21.742,291.621 21.426 C 291.359 21.110,290.617 20.736,289.972 20.594 C 289.328 20.452,288.800 20.171,288.800 19.968 C 288.800 19.766,288.575 19.598,288.300 19.596 C 288.025 19.594,286.900 19.150,285.800 18.609 C 284.700 18.068,283.575 17.619,283.300 17.613 C 283.025 17.606,282.800 17.420,282.800 17.200 C 282.800 16.980,282.610 16.800,282.378 16.800 C 281.996 16.800,280.550 16.207,276.932 14.567 C 276.234 14.251,275.109 13.882,274.432 13.746 C 273.754 13.611,273.200 13.357,273.200 13.182 C 273.200 13.007,272.615 12.737,271.900 12.582 C 271.185 12.426,270.510 12.184,270.400 12.043 C 270.132 11.699,263.783 9.600,263.011 9.600 C 262.675 9.600,262.400 9.437,262.400 9.238 C 262.400 9.038,261.500 8.751,260.400 8.600 C 259.300 8.449,258.400 8.173,258.400 7.987 C 258.400 7.801,257.588 7.527,256.595 7.378 C 255.602 7.229,254.705 6.970,254.602 6.802 C 254.498 6.635,252.970 6.263,251.206 5.977 C 249.443 5.690,248.000 5.323,248.000 5.160 C 248.000 4.997,246.830 4.738,245.400 4.585 C 243.970 4.432,242.800 4.162,242.800 3.985 C 242.800 3.808,241.585 3.535,240.100 3.379 C 238.615 3.222,237.310 2.955,237.200 2.786 C 237.090 2.617,234.840 2.265,232.200 2.004 C 229.560 1.743,227.040 1.377,226.600 1.189 C 224.082 0.115,191.826 -0.375,179.400 0.472 M116.800 39.200 C 119.918 42.318,115.732 47.397,104.600 54.003 C 98.750 57.474,90.927 62.876,85.966 66.870 C 81.023 70.848,79.192 72.510,71.005 80.446 C 63.580 87.645,61.435 88.533,58.417 85.662 C 54.433 81.872,57.192 77.275,70.890 64.879 C 78.813 57.710,84.991 53.097,96.800 45.531 C 106.178 39.522,114.491 36.891,116.800 39.200 M134.912 80.573 C 144.636 82.152,152.270 88.807,153.063 96.398 C 153.361 99.250,153.231 99.290,150.454 97.203 C 141.358 90.369,127.602 89.206,116.015 94.291 C 114.078 95.141,109.451 97.436,105.829 99.343 C 103.895 100.361,103.880 99.702,105.759 96.170 C 112.507 83.486,121.900 78.461,134.912 80.573 M276.719 80.606 C 286.234 82.150,294.100 89.160,294.721 96.650 C 294.934 99.224,294.784 99.255,292.054 97.203 C 286.340 92.911,281.400 91.424,272.800 91.411 C 264.167 91.397,260.026 92.575,250.436 97.772 C 244.991 100.722,244.843 100.529,248.113 94.753 C 254.636 83.232,264.088 78.558,276.719 80.606 M52.626 93.911 C 55.328 95.876,55.294 98.291,52.496 103.117 C 47.607 111.551,43.716 113.680,40.113 109.892 C 37.655 107.310,38.123 104.862,42.288 98.502 C 45.865 93.041,49.320 91.507,52.626 93.911 M137.600 117.951 C 150.511 121.814,160.022 130.830,165.544 144.438 C 178.619 176.664,158.866 214.129,128.800 214.129 C 94.536 214.129,75.546 167.151,96.847 135.082 C 106.278 120.883,123.378 113.695,137.600 117.951 M276.600 118.045 C 307.466 123.100,321.968 168.947,301.706 197.410 C 279.884 228.064,239.858 216.927,230.513 177.600 C 229.502 173.345,229.508 158.699,230.522 154.600 C 236.860 128.997,255.103 114.524,276.600 118.045 M127.700 122.287 C 128.305 122.378,129.295 122.378,129.900 122.287 C 130.505 122.195,130.010 122.120,128.800 122.120 C 127.590 122.120,127.095 122.195,127.700 122.287 M150.383 131.700 C 152.041 133.466,152.400 133.784,152.400 133.483 C 152.400 133.419,151.545 132.564,150.500 131.583 L 148.600 129.800 150.383 131.700 M248.175 132.500 L 247.000 133.800 248.300 132.625 C 249.015 131.979,249.600 131.394,249.600 131.325 C 249.600 131.016,249.270 131.288,248.175 132.500 M269.700 148.276 C 270.085 148.376,270.715 148.376,271.100 148.276 C 271.485 148.175,271.170 148.093,270.400 148.093 C 269.630 148.093,269.315 148.175,269.700 148.276 M235.331 166.200 C 235.333 167.740,235.405 168.321,235.492 167.491 C 235.579 166.661,235.577 165.401,235.489 164.691 C 235.400 163.981,235.329 164.660,235.331 166.200 M298.493 178.000 C 298.493 178.770,298.575 179.085,298.676 178.700 C 298.776 178.315,298.776 177.685,298.676 177.300 C 298.575 176.915,298.493 177.230,298.493 178.000 M156.920 179.600 C 156.920 180.810,156.995 181.305,157.087 180.700 C 157.178 180.095,157.178 179.105,157.087 178.500 C 156.995 177.895,156.920 178.390,156.920 179.600 M298.493 182.400 C 298.493 183.170,298.575 183.485,298.676 183.100 C 298.776 182.715,298.776 182.085,298.676 181.700 C 298.575 181.315,298.493 181.630,298.493 182.400 M151.301 244.200 C 151.305 245.080,151.387 245.393,151.483 244.895 C 151.579 244.398,151.575 243.678,151.475 243.295 C 151.375 242.913,151.296 243.320,151.301 244.200 M128.509 251.600 C 128.509 252.590,128.587 252.995,128.682 252.500 C 128.778 252.005,128.778 251.195,128.682 250.700 C 128.587 250.205,128.509 250.610,128.509 251.600 M179.387 274.000 C 179.387 286.870,179.438 292.135,179.500 285.700 C 179.562 279.265,179.562 268.735,179.500 262.300 C 179.438 255.865,179.387 261.130,179.387 274.000 M223.388 275.600 C 223.388 289.350,223.438 294.975,223.500 288.100 C 223.561 281.225,223.561 269.975,223.500 263.100 C 223.438 256.225,223.388 261.850,223.388 275.600 M150.920 256.400 C 150.920 257.610,150.995 258.105,151.087 257.500 C 151.178 256.895,151.178 255.905,151.087 255.300 C 150.995 254.695,150.920 255.190,150.920 256.400 M128.901 265.400 C 128.905 266.280,128.987 266.593,129.083 266.095 C 129.179 265.598,129.175 264.878,129.075 264.495 C 128.975 264.113,128.896 264.520,128.901 265.400 M150.514 265.800 C 150.517 266.900,150.595 267.303,150.687 266.695 C 150.779 266.086,150.777 265.186,150.682 264.695 C 150.587 264.203,150.511 264.700,150.514 265.800 M255.282 265.096 C 256.758 265.173,259.278 265.173,260.882 265.097 C 262.487 265.021,261.280 264.958,258.200 264.958 C 255.120 264.957,253.807 265.019,255.282 265.096 M77.787 273.000 L 77.800 281.000 83.301 281.018 L 88.801 281.035 83.409 280.906 L 78.017 280.778 77.895 272.889 L 77.773 265.000 77.787 273.000 M252.482 275.076 C 252.437 280.398,252.535 284.837,252.700 284.939 C 252.865 285.041,252.954 282.217,252.897 278.663 C 252.705 266.586,252.565 265.376,252.482 275.076 M338.990 294.800 C 338.990 310.970,339.039 317.585,339.100 309.500 C 339.160 301.415,339.160 288.185,339.100 280.100 C 339.039 272.015,338.990 278.630,338.990 294.800 M129.320 277.600 C 129.320 278.810,129.395 279.305,129.487 278.700 C 129.578 278.095,129.578 277.105,129.487 276.500 C 129.395 275.895,129.320 276.390,129.320 277.600 M150.101 279.000 C 150.105 279.880,150.187 280.193,150.283 279.695 C 150.379 279.198,150.375 278.478,150.275 278.095 C 150.175 277.713,150.096 278.120,150.101 279.000 M129.714 287.000 C 129.717 288.100,129.795 288.503,129.887 287.895 C 129.979 287.286,129.977 286.386,129.882 285.895 C 129.787 285.403,129.711 285.900,129.714 287.000 M149.714 292.200 C 149.717 293.300,149.795 293.703,149.887 293.095 C 149.979 292.486,149.977 291.586,149.882 291.095 C 149.787 290.603,149.711 291.100,149.714 292.200 M77.771 301.200 C 77.771 306.150,77.828 308.175,77.899 305.700 C 77.969 303.225,77.969 299.175,77.899 296.700 C 77.828 294.225,77.771 296.250,77.771 301.200 M130.101 300.200 C 130.105 301.080,130.187 301.393,130.283 300.895 C 130.379 300.398,130.375 299.678,130.275 299.295 C 130.175 298.913,130.096 299.320,130.101 300.200 M149.324 301.400 C 149.326 302.720,149.401 303.212,149.490 302.493 C 149.579 301.774,149.577 300.694,149.486 300.093 C 149.395 299.492,149.322 300.080,149.324 301.400 M252.578 312.000 C 252.578 318.930,252.633 321.765,252.699 318.300 C 252.766 314.835,252.766 309.165,252.699 305.700 C 252.633 302.235,252.578 305.070,252.578 312.000 M135.300 305.099 C 137.885 305.168,142.115 305.168,144.700 305.099 C 147.285 305.029,145.170 304.972,140.000 304.972 C 134.830 304.972,132.715 305.029,135.300 305.099 M191.905 309.883 C 192.402 309.979,193.122 309.975,193.505 309.875 C 193.887 309.775,193.480 309.696,192.600 309.701 C 191.720 309.705,191.407 309.787,191.905 309.883 M130.975 314.900 L 129.800 316.200 131.100 315.025 C 132.312 313.930,132.584 313.600,132.275 313.600 C 132.206 313.600,131.621 314.185,130.975 314.900 M127.701 322.600 C 127.705 323.480,127.787 323.793,127.883 323.295 C 127.979 322.798,127.975 322.078,127.875 321.695 C 127.775 321.313,127.696 321.720,127.701 322.600 M57.397 340.804 C 57.260 341.026,58.088 342.061,59.237 343.104 C 60.387 344.147,62.444 346.085,63.808 347.410 C 65.173 348.736,66.899 350.290,67.644 350.864 C 68.390 351.438,69.540 352.464,70.200 353.143 C 70.860 353.822,71.625 354.383,71.900 354.389 C 72.175 354.395,72.400 354.556,72.400 354.746 C 72.400 354.936,73.159 355.611,74.087 356.246 C 75.014 356.881,76.071 357.670,76.434 358.000 C 76.798 358.330,77.615 359.069,78.251 359.642 C 78.886 360.215,79.793 360.807,80.266 360.957 C 80.739 361.108,81.227 361.494,81.350 361.815 C 81.474 362.137,81.831 362.400,82.145 362.400 C 82.458 362.400,82.818 362.670,82.945 363.000 C 83.071 363.330,83.451 363.600,83.787 363.600 C 84.124 363.600,84.400 363.784,84.400 364.009 C 84.400 364.233,84.895 364.635,85.500 364.900 C 86.105 365.166,86.744 365.612,86.920 365.892 C 87.096 366.171,87.486 366.400,87.787 366.400 C 88.087 366.400,88.393 366.535,88.467 366.700 C 88.655 367.123,91.095 368.800,91.523 368.800 C 91.718 368.800,92.293 369.160,92.800 369.600 C 93.307 370.040,93.946 370.400,94.218 370.400 C 94.491 370.400,94.818 370.670,94.945 371.000 C 95.071 371.330,95.451 371.600,95.787 371.600 C 96.124 371.600,96.400 371.744,96.400 371.920 C 96.400 372.095,97.030 372.467,97.800 372.746 C 98.570 373.024,99.200 373.420,99.200 373.626 C 99.200 373.832,99.401 374.000,99.648 374.000 C 99.894 374.000,101.109 374.615,102.348 375.368 C 103.586 376.120,105.095 376.859,105.700 377.011 C 106.305 377.163,106.800 377.433,106.800 377.612 C 106.800 377.790,107.340 378.055,108.000 378.200 C 108.660 378.345,109.200 378.626,109.200 378.824 C 109.200 379.022,109.650 379.298,110.200 379.436 C 110.750 379.574,111.200 379.847,111.200 380.043 C 111.200 380.240,111.425 380.402,111.700 380.404 C 111.975 380.406,113.100 380.850,114.200 381.391 C 115.300 381.932,116.425 382.381,116.700 382.387 C 116.975 382.394,117.200 382.566,117.200 382.768 C 117.200 382.971,117.785 383.263,118.500 383.418 C 119.215 383.574,119.890 383.816,120.000 383.956 C 120.302 384.342,125.529 386.400,126.208 386.400 C 126.534 386.400,126.800 386.572,126.800 386.782 C 126.800 386.992,127.430 387.282,128.200 387.426 C 128.970 387.571,129.600 387.838,129.600 388.020 C 129.600 388.202,130.410 388.472,131.400 388.621 C 132.390 388.769,133.200 389.032,133.200 389.206 C 133.200 389.379,134.145 389.742,135.300 390.012 C 136.455 390.283,137.589 390.653,137.820 390.835 C 138.051 391.016,138.996 391.286,139.920 391.434 C 140.844 391.581,141.600 391.853,141.600 392.037 C 141.600 392.222,142.504 392.492,143.609 392.639 C 144.714 392.786,145.708 393.051,145.817 393.228 C 145.927 393.405,147.363 393.777,149.008 394.053 C 150.654 394.330,152.000 394.687,152.000 394.846 C 152.000 395.006,153.170 395.262,154.600 395.415 C 156.030 395.568,157.200 395.838,157.200 396.015 C 157.200 396.192,158.415 396.463,159.900 396.617 C 161.385 396.771,162.780 397.037,163.000 397.208 C 163.220 397.379,165.470 397.734,168.000 397.998 C 170.530 398.262,172.960 398.629,173.400 398.815 C 176.982 400.326,225.260 400.333,226.400 398.823 C 226.510 398.678,228.708 398.353,231.284 398.102 C 233.861 397.850,236.291 397.477,236.684 397.272 C 237.078 397.067,238.615 396.772,240.100 396.618 C 241.585 396.463,242.800 396.192,242.800 396.015 C 242.800 395.838,243.970 395.568,245.400 395.415 C 246.830 395.262,248.000 395.003,248.000 394.840 C 248.000 394.677,249.443 394.310,251.206 394.023 C 252.970 393.737,254.498 393.365,254.602 393.198 C 254.705 393.030,255.602 392.771,256.595 392.622 C 257.588 392.473,258.400 392.205,258.400 392.027 C 258.400 391.848,259.128 391.586,260.017 391.444 C 260.907 391.301,261.942 391.025,262.317 390.829 C 262.693 390.633,264.620 389.966,266.600 389.348 C 268.580 388.729,270.290 388.105,270.400 387.962 C 270.510 387.818,271.185 387.574,271.900 387.418 C 272.615 387.263,273.200 386.993,273.200 386.818 C 273.200 386.643,273.740 386.392,274.400 386.260 C 275.060 386.128,276.400 385.656,277.378 385.210 C 278.356 384.765,279.346 384.400,279.578 384.400 C 279.810 384.400,280.000 384.240,280.000 384.045 C 280.000 383.849,280.630 383.571,281.400 383.426 C 282.170 383.282,282.800 382.992,282.800 382.782 C 282.800 382.572,283.025 382.394,283.300 382.387 C 283.575 382.381,284.700 381.932,285.800 381.391 C 286.900 380.850,288.025 380.406,288.300 380.404 C 288.575 380.402,288.804 380.265,288.808 380.100 C 288.813 379.935,289.799 379.350,291.000 378.800 C 292.201 378.250,293.187 377.685,293.192 377.543 C 293.196 377.402,293.695 377.163,294.300 377.011 C 294.905 376.859,296.414 376.120,297.652 375.368 C 298.891 374.615,300.106 374.000,300.352 374.000 C 300.599 374.000,300.800 373.854,300.800 373.675 C 300.800 373.496,301.430 373.102,302.200 372.800 C 302.970 372.498,303.600 372.104,303.600 371.925 C 303.600 371.746,303.861 371.600,304.180 371.600 C 304.499 371.600,304.904 371.371,305.080 371.092 C 305.256 370.812,305.850 370.360,306.400 370.087 C 306.950 369.815,307.940 369.235,308.600 368.800 C 309.260 368.365,310.205 367.798,310.700 367.540 C 311.195 367.282,311.600 366.920,311.600 366.736 C 311.600 366.551,311.876 366.400,312.213 366.400 C 312.549 366.400,312.922 366.146,313.041 365.836 C 313.161 365.526,313.650 365.173,314.129 365.051 C 314.608 364.929,315.596 364.283,316.325 363.615 C 317.053 362.947,317.790 362.400,317.963 362.400 C 318.135 362.400,318.602 362.040,319.000 361.600 C 319.398 361.160,319.906 360.800,320.128 360.800 C 320.351 360.800,320.818 360.532,321.166 360.204 C 323.608 357.906,324.975 356.800,325.375 356.800 C 325.629 356.800,326.279 356.268,326.819 355.617 C 327.358 354.966,328.016 354.426,328.280 354.417 C 328.544 354.408,328.904 354.168,329.080 353.885 C 329.256 353.602,330.377 352.567,331.571 351.585 C 332.765 350.603,334.852 348.720,336.208 347.400 C 337.565 346.080,339.615 344.147,340.764 343.104 C 341.912 342.061,342.740 341.026,342.603 340.804 C 342.255 340.242,57.745 340.242,57.397 340.804 " stroke="none" fill="#fb5b04" fill-rule="evenodd"></path></g></svg>