<?xml version="1.0" standalone="no"?>
<!DOCTYPE svg PUBLIC "-//W3C//DTD SVG 20010904//EN"
 "http://www.w3.org/TR/2001/REC-SVG-20010904/DTD/svg10.dtd">
<svg version="1.0" xmlns="http://www.w3.org/2000/svg"
 width="699.000000pt" height="699.000000pt" viewBox="0 0 699.000000 699.000000"
 preserveAspectRatio="xMidYMid meet">
<metadata>
Created by potrace 1.14, written by Peter Selinger 2001-2017
</metadata>
<g transform="translate(0.000000,699.000000) scale(0.100000,-0.100000)"
fill="#000000" stroke="none">
<path d="M3310 6979 c-864 -40 -1707 -422 -2315 -1051 -600 -619 -940 -1399
-984 -2254 -10 -184 -1 -467 19 -605 6 -41 15 -119 20 -174 23 -255 174 -709
338 -1015 219 -411 456 -706 817 -1017 553 -477 1195 -757 1920 -838 186 -21
555 -21 740 0 776 87 1471 407 2028 935 47 44 89 80 95 80 14 0 162 161 258
280 191 238 399 595 512 880 108 272 183 551 187 695 2 50 10 153 20 230 22
184 22 549 1 740 -79 694 -336 1307 -773 1844 -189 231 -499 514 -745 679
-643 430 -1356 627 -2138 591z m-1262 -671 c34 -34 -8 -122 -85 -179 -26 -20
-77 -53 -113 -74 -217 -129 -370 -246 -559 -430 -178 -173 -210 -189 -270
-139 -26 21 -31 33 -31 69 0 35 7 52 39 92 53 66 249 255 346 332 159 127 413
285 525 327 45 16 132 18 148 2z m-1117 -967 c18 -18 29 -40 29 -56 0 -73
-138 -255 -194 -255 -33 0 -96 57 -96 88 0 56 90 211 138 237 45 24 90 19 123
-14z m1469 -511 c111 -32 235 -127 312 -238 44 -64 95 -178 119 -267 32 -118
33 -337 1 -455 -25 -93 -87 -228 -126 -275 l-25 -30 26 75 c47 134 43 323 -10
450 l-14 32 -21 -35 c-30 -47 -88 -85 -153 -99 -77 -16 -155 8 -212 65 -88 87
-89 237 -3 316 14 14 26 28 26 33 0 13 -120 9 -177 -6 -87 -23 -145 -58 -219
-131 -113 -112 -164 -240 -164 -415 0 -98 16 -180 50 -257 10 -24 17 -43 16
-43 -8 0 -87 130 -110 181 -52 114 -69 201 -70 364 -1 172 13 239 74 372 66
141 140 231 250 302 135 87 272 107 430 61z m2503 -19 c210 -82 366 -295 418
-569 17 -92 6 -308 -21 -402 -25 -89 -90 -223 -128 -265 -15 -17 -24 -26 -20
-20 19 30 58 171 64 231 7 81 -8 191 -37 270 -19 49 -23 54 -32 38 -71 -135
-266 -162 -376 -53 -86 86 -92 203 -16 303 18 24 31 47 28 50 -12 11 -109 6
-168 -9 -223 -58 -385 -287 -385 -545 0 -77 21 -181 49 -247 l21 -48 -25 30
c-14 17 -43 64 -64 105 -168 320 -111 751 129 990 77 77 164 132 249 156 73
21 243 13 314 -15z m-2258 -2128 c-3 -43 -10 -229 -15 -413 -6 -184 -13 -397
-16 -472 l-7 -138 -162 0 -163 0 -6 83 c-3 45 -10 237 -16 427 -5 190 -13 400
-16 468 l-6 122 206 0 206 0 -5 -77z m-935 -84 c188 -30 302 -148 302 -314 0
-83 -16 -127 -68 -185 -37 -41 -118 -90 -149 -90 -8 0 -15 -4 -15 -10 0 -5 9
-10 20 -10 34 0 124 -39 162 -70 21 -17 51 -59 68 -94 28 -55 32 -74 32 -144
0 -105 -33 -183 -103 -246 -114 -102 -183 -116 -591 -116 l-318 0 0 645 0 645
298 0 c163 0 326 -5 362 -11z m1430 -421 c0 -485 0 -481 73 -545 48 -42 96
-56 177 -51 83 4 136 36 177 105 l28 48 3 438 3 437 154 0 155 0 0 -402 c0
-462 -6 -543 -49 -635 -56 -119 -180 -214 -323 -248 -83 -19 -267 -19 -343 0
-184 47 -317 173 -354 336 -6 26 -11 228 -11 497 l0 452 155 0 155 0 0 -432z
m1628 417 c185 -44 296 -163 325 -346 26 -169 -52 -352 -177 -416 -17 -9 -33
-17 -35 -19 -1 -1 49 -99 112 -216 63 -117 122 -228 131 -245 l17 -33 -168 0
-168 0 -115 220 -115 220 -77 0 -78 0 -2 -217 -3 -218 -152 -3 -153 -3 0 646
0 645 298 0 c228 0 312 -4 360 -15z m1542 -110 l0 -125 -192 -2 -193 -3 -3
-517 -2 -518 -150 0 -150 0 0 520 0 520 -195 0 -195 0 0 125 0 125 540 0 540
0 0 -125z m-3748 -971 c79 -55 110 -153 75 -237 -20 -45 -88 -104 -139 -117
-152 -41 -297 94 -258 241 14 50 63 107 115 131 61 29 152 21 207 -18z"/>
<path d="M1360 2220 l0 -140 108 0 c84 0 116 5 149 20 105 47 113 189 13 240
-33 17 -59 20 -155 20 l-115 0 0 -140z"/>
<path d="M1360 1725 l0 -155 113 0 c130 0 201 17 238 56 21 22 24 35 24 94 0
59 -3 72 -25 96 -47 51 -92 64 -227 64 l-123 0 0 -155z"/>
<path d="M4420 2186 l0 -176 103 0 c124 0 171 12 213 54 55 55 58 165 7 226
-44 52 -76 63 -205 68 l-118 4 0 -176z"/>
</g>
</svg>
